<svg width="172" height="485" viewBox="0 0 172 485" fill="none" xmlns="http://www.w3.org/2000/svg">
<path d="M26.3159 485C11.782 485 0 473.218 0 458.684C0 444.15 11.782 432.368 26.3159 432.368H104.783C130.741 432.368 151.783 411.326 151.783 385.368V122C151.783 96.0426 130.741 75 104.783 75H37.5C16.7893 75 0 58.2107 0 37.5C0 16.7893 16.7893 0 37.5 0H136.055C162.012 0 183.055 21.0426 183.055 47V279.468C183.055 305.425 204.097 326.468 230.055 326.468H408.783C434.741 326.468 455.783 347.51 455.783 373.468V438C455.783 463.957 434.741 485 408.783 485H26.3159Z" fill="url(#paint0_linear_62_313)"/>
<defs>
<linearGradient id="paint0_linear_62_313" x1="455.783" y1="242.5" x2="0" y2="242.5" gradientUnits="userSpaceOnUse">
<stop stop-color="#CBF90C"/>
<stop offset="1" stop-color="#B3BBFC"/>
</linearGradient>
</defs>
</svg>
