<svg width="173" height="485" viewBox="0 0 173 485" fill="none" xmlns="http://www.w3.org/2000/svg">
<path d="M146.467 485C161.001 485 172.783 473.218 172.783 458.684C172.783 444.15 161.001 432.368 146.467 432.368H68C42.0426 432.368 21 411.326 21 385.368V122C21 96.0426 42.0426 75 68 75H135.283C155.994 75 172.783 58.2107 172.783 37.5C172.783 16.7893 155.994 0 135.283 0H36.7285C10.7711 0 -10.2715 21.0426 -10.2715 47V279.468C-10.2715 305.425 -31.3141 326.468 -57.2715 326.468H-236C-261.957 326.468 -283 347.51 -283 373.468V438C-283 463.957 -261.957 485 -236 485H146.467Z" fill="url(#paint0_linear_62_317)"/>
<defs>
<linearGradient id="paint0_linear_62_317" x1="-283" y1="242.5" x2="172.783" y2="242.5" gradientUnits="userSpaceOnUse">
<stop stop-color="#CBF90C"/>
<stop offset="1" stop-color="#B3BBFC"/>
</linearGradient>
</defs>
</svg>
